<svg width="19" height="19" viewBox="0 0 19 19" fill="none" xmlns="http://www.w3.org/2000/svg">
<path d="M10.7044 2.45334V1.66106C10.7044 1.46113 10.6249 1.26939 10.4836 1.12802C10.3422 0.986648 10.1504 0.907227 9.95052 0.907227C9.75059 0.907227 9.55885 0.986648 9.41748 1.12802C9.27611 1.26939 9.19669 1.46113 9.19669 1.66106V2.45334C7.67905 2.5894 6.22842 3.14174 5.00462 4.04952C3.78082 4.95729 2.83135 6.18527 2.26082 7.59815C1.69028 9.01104 1.52083 10.554 1.77113 12.057C2.02143 13.56 2.68177 14.9648 3.67939 16.1166C3.28541 16.3115 2.95618 16.6161 2.73136 16.9938C2.50653 17.3715 2.39569 17.8061 2.4122 18.2454C2.4122 18.4453 2.49162 18.637 2.63299 18.7784C2.77436 18.9198 2.9661 18.9992 3.16603 18.9992C3.36596 18.9992 3.5577 18.9198 3.69907 18.7784C3.84044 18.637 3.91986 18.4453 3.91986 18.2454C3.9136 18.013 3.99701 17.7872 4.15281 17.6147C4.30861 17.4422 4.52482 17.3363 4.75662 17.3189C4.80847 17.3091 4.85904 17.2934 4.90738 17.2722C6.35137 18.3921 8.12688 19 9.95429 19C11.7817 19 13.5572 18.3921 15.0012 17.2722C15.0453 17.2925 15.0913 17.3087 15.1384 17.3204C15.371 17.3363 15.5885 17.4413 15.7455 17.6137C15.9025 17.786 15.987 18.0123 15.9812 18.2454C15.9812 18.4453 16.0606 18.637 16.202 18.7784C16.3433 18.9198 16.5351 18.9992 16.735 18.9992C16.9349 18.9992 17.1267 18.9198 17.2681 18.7784C17.4094 18.637 17.4888 18.4453 17.4888 18.2454C17.5053 17.8061 17.3945 17.3715 17.1697 16.9938C16.9449 16.6161 16.6156 16.3115 16.2217 16.1166C17.2193 14.9648 17.8796 13.56 18.1299 12.057C18.3802 10.554 18.2108 9.01104 17.6402 7.59815C17.0697 6.18527 16.1202 4.95729 14.8964 4.04952C13.6726 3.14174 12.222 2.5894 10.7044 2.45334ZM3.16603 10.7071C3.16603 9.36521 3.56393 8.05349 4.30942 6.93779C5.05491 5.82208 6.1145 4.9525 7.35421 4.439C8.59391 3.92549 9.95805 3.79114 11.2741 4.05292C12.5902 4.3147 13.7991 4.96086 14.7479 5.90969C15.6967 6.85852 16.3429 8.0674 16.6047 9.38346C16.8664 10.6995 16.7321 12.0637 16.2186 13.3034C15.7051 14.5431 14.8355 15.6027 13.7198 16.3482C12.6041 17.0936 11.2924 17.4915 9.95052 17.4915C8.15184 17.4894 6.42745 16.7739 5.15558 15.502C3.88372 14.2301 3.16822 12.5057 3.16603 10.7071Z" fill="#7A3ABF"/>
<path d="M15.3896 0.907255C15.1896 0.907255 14.9979 0.986677 14.8565 1.12805C14.7152 1.26942 14.6357 1.46116 14.6357 1.66109C14.6357 1.86102 14.7152 2.05276 14.8565 2.19413C14.9979 2.3355 15.1896 2.41492 15.3896 2.41492C15.6524 2.39494 15.9166 2.4284 16.1662 2.51328C16.4158 2.59817 16.6456 2.73272 16.8418 2.90882C17.038 3.08492 17.1965 3.29893 17.3077 3.53794C17.4189 3.77695 17.4806 4.03601 17.489 4.2995C17.489 4.49943 17.5684 4.69117 17.7098 4.83254C17.8512 4.97391 18.0429 5.05333 18.2428 5.05333C18.4428 5.05333 18.6345 4.97391 18.7759 4.83254C18.9172 4.69117 18.9967 4.49943 18.9967 4.2995C18.987 3.83853 18.8855 3.38411 18.6982 2.96283C18.5108 2.54155 18.2413 2.16186 17.9054 1.84599C17.5695 1.53012 17.174 1.2844 16.742 1.12322C16.3101 0.96203 15.8503 0.888611 15.3896 0.907255Z" fill="#7A3ABF"/>
<path d="M2.41196 4.2995C2.42036 4.03601 2.48204 3.77695 2.59327 3.53794C2.7045 3.29893 2.86299 3.08492 3.05917 2.90882C3.25535 2.73272 3.48516 2.59817 3.73474 2.51328C3.98433 2.4284 4.24852 2.39494 4.51139 2.41492C4.71131 2.41492 4.90305 2.3355 5.04443 2.19413C5.1858 2.05276 5.26522 1.86102 5.26522 1.66109C5.26522 1.46116 5.1858 1.26942 5.04443 1.12805C4.90305 0.986677 4.71131 0.907255 4.51139 0.907255C4.05069 0.888611 3.5909 0.96203 3.15892 1.12322C2.72694 1.2844 2.33144 1.53012 1.99556 1.84599C1.65969 2.16186 1.39018 2.54155 1.2028 2.96283C1.01542 3.38411 0.913943 3.83853 0.904297 4.2995C0.904297 4.49943 0.983718 4.69117 1.12509 4.83254C1.26646 4.97391 1.4582 5.05333 1.65813 5.05333C1.85806 5.05333 2.0498 4.97391 2.19117 4.83254C2.33254 4.69117 2.41196 4.49943 2.41196 4.2995Z" fill="#7A3ABF"/>
<path d="M10.704 9.64115V6.18407C10.704 5.98414 10.6245 5.7924 10.4832 5.65103C10.3418 5.50966 10.1501 5.43024 9.95012 5.43024C9.75019 5.43024 9.55845 5.50966 9.41708 5.65103C9.27571 5.7924 9.19629 5.98414 9.19629 6.18407V9.95323C9.19633 10.1531 9.27578 10.3449 9.41716 10.4862L11.6787 12.7477C11.8208 12.885 12.0113 12.961 12.2089 12.9593C12.4066 12.9576 12.5956 12.8783 12.7354 12.7385C12.8752 12.5987 12.9544 12.4097 12.9562 12.212C12.9579 12.0144 12.8819 11.8239 12.7446 11.6818L10.704 9.64115Z" fill="#7A3ABF"/>
</svg>
