<svg width="20" height="24" viewBox="0 0 20 24" fill="none" xmlns="http://www.w3.org/2000/svg">
<path d="M1.375 10.75C1.47446 10.75 1.56984 10.7895 1.64017 10.8598C1.71049 10.9302 1.75 11.0255 1.75 11.125V18.6663C1.75099 19.749 2.18156 20.7872 2.9472 21.5528C3.71284 22.3184 4.75098 22.749 5.83375 22.75H10.2325C10.6514 22.7517 11.055 22.5929 11.3605 22.3063C11.666 22.0196 11.8501 21.6269 11.875 21.2087C11.4521 21.1224 11.072 20.8929 10.7987 20.5588C10.5254 20.2247 10.3758 19.8066 10.375 19.375V19.0487C9.28146 18.6575 8.3349 17.9391 7.66397 16.991C6.99305 16.043 6.63029 14.9114 6.625 13.75V8.125C6.32663 8.125 6.04048 8.00647 5.82951 7.7955C5.61853 7.58452 5.5 7.29837 5.5 7C5.5 6.70163 5.61853 6.41548 5.82951 6.2045C6.04048 5.99353 6.32663 5.875 6.625 5.875H8.125V2.125C8.125 1.82663 8.24353 1.54048 8.45451 1.3295C8.66548 1.11853 8.95163 1 9.25 1C9.54837 1 9.83452 1.11853 10.0455 1.3295C10.2565 1.54048 10.375 1.82663 10.375 2.125V5.875H14.125V2.125C14.125 1.82663 14.2435 1.54048 14.4545 1.3295C14.6655 1.11853 14.9516 1 15.25 1C15.5484 1 15.8345 1.11853 16.0455 1.3295C16.2565 1.54048 16.375 1.82663 16.375 2.125V5.875H17.875C18.1734 5.875 18.4595 5.99353 18.6705 6.2045C18.8815 6.41548 19 6.70163 19 7C19 7.29837 18.8815 7.58452 18.6705 7.7955C18.4595 8.00647 18.1734 8.125 17.875 8.125V13.75C17.8697 14.9114 17.507 16.043 16.836 16.991C16.1651 17.9391 15.2185 18.6575 14.125 19.0487V19.375C14.1251 19.8072 13.9758 20.2262 13.7025 20.5611C13.4291 20.8959 13.0485 21.1261 12.625 21.2125C12.597 21.8283 12.3328 22.4097 11.8872 22.8357C11.4416 23.2618 10.849 23.4997 10.2325 23.5H5.83375C4.55206 23.499 3.32316 22.9894 2.41687 22.0831C1.51058 21.1768 1.00099 19.9479 1 18.6663V11.125C1 11.0255 1.03951 10.9302 1.10983 10.8598C1.18016 10.7895 1.27554 10.75 1.375 10.75ZM9.625 2.125C9.625 2.02554 9.58549 1.93016 9.51517 1.85984C9.44484 1.78951 9.34946 1.75 9.25 1.75C9.15054 1.75 9.05516 1.78951 8.98483 1.85984C8.91451 1.93016 8.875 2.02554 8.875 2.125V5.875H9.625V2.125ZM15.625 2.125C15.625 2.02554 15.5855 1.93016 15.5152 1.85984C15.4448 1.78951 15.3495 1.75 15.25 1.75C15.1505 1.75 15.0552 1.78951 14.9848 1.85984C14.9145 1.93016 14.875 2.02554 14.875 2.125V5.875H15.625V2.125ZM18.25 7C18.25 6.90054 18.2105 6.80516 18.1402 6.73483C18.0698 6.66451 17.9745 6.625 17.875 6.625H6.625C6.52554 6.625 6.43016 6.66451 6.35983 6.73483C6.28951 6.80516 6.25 6.90054 6.25 7C6.25 7.09946 6.28951 7.19484 6.35983 7.26517C6.43016 7.33549 6.52554 7.375 6.625 7.375H17.875C17.9745 7.375 18.0698 7.33549 18.1402 7.26517C18.2105 7.19484 18.25 7.09946 18.25 7ZM17.125 13.75V8.125H7.375V13.75C7.375 15.0429 7.88861 16.2829 8.80285 17.1971C9.71709 18.1114 10.9571 18.625 12.25 18.625C13.5429 18.625 14.7829 18.1114 15.6971 17.1971C16.6114 16.2829 17.125 15.0429 17.125 13.75ZM13.375 19.375V19.2587C12.633 19.4138 11.867 19.4138 11.125 19.2587V19.375C11.125 19.6734 11.2435 19.9595 11.4545 20.1705C11.6655 20.3815 11.9516 20.5 12.25 20.5C12.5484 20.5 12.8345 20.3815 13.0455 20.1705C13.2565 19.9595 13.375 19.6734 13.375 19.375ZM13.375 13C13.4328 13.0017 13.4903 12.99 13.5428 12.9658C13.5954 12.9416 13.6416 12.9056 13.6779 12.8606C13.7142 12.8155 13.7396 12.7627 13.7521 12.7062C13.7646 12.6498 13.7639 12.5912 13.75 12.535L13.1088 9.91C13.0849 9.81054 13.0225 9.72464 12.9353 9.6712C12.8481 9.61775 12.7432 9.60113 12.6437 9.625C12.5443 9.64887 12.4584 9.71127 12.4049 9.79847C12.3515 9.88568 12.3349 9.99054 12.3588 10.09L12.8987 12.25H11.125C11.0648 12.25 11.0055 12.2645 10.9521 12.2923C10.8987 12.3201 10.8527 12.3604 10.8182 12.4096C10.7836 12.4589 10.7614 12.5158 10.7534 12.5755C10.7455 12.6352 10.752 12.6959 10.7725 12.7525L11.7362 15.3775C11.7625 15.45 11.8103 15.5126 11.8734 15.5569C11.9365 15.6012 12.0117 15.625 12.0887 15.625C12.1334 15.6249 12.1778 15.6173 12.22 15.6025C12.3128 15.5679 12.3881 15.498 12.4296 15.4081C12.471 15.3182 12.4752 15.2155 12.4412 15.1225L11.6613 13H13.375Z" fill="#7A3ABF" stroke="#7A3ABF" stroke-width="0.2"/>
</svg>
