<svg width="21" height="17" viewBox="0 0 21 17" fill="none" xmlns="http://www.w3.org/2000/svg">
<path d="M3.10053 16.7312H13.0126C13.0703 16.7312 13.1256 16.7083 13.1664 16.6675C13.2072 16.6267 13.2301 16.5714 13.2301 16.5137C13.2301 16.456 13.2072 16.4006 13.1664 16.3598C13.1256 16.319 13.0703 16.2961 13.0126 16.2961H3.10053C2.65906 16.2956 2.2358 16.1201 1.92363 15.8079C1.61146 15.4957 1.43588 15.0725 1.43542 14.631V3.10285C1.43542 2.18327 2.1824 1.43484 3.10053 1.43484H6.56942V4.93476C6.56942 5.3612 7.03182 5.62402 7.39762 5.40993L8.62934 4.68935C8.64693 4.67902 8.66695 4.67358 8.68735 4.67358C8.70775 4.67358 8.72778 4.67902 8.74537 4.68935L9.97738 5.40993C10.3458 5.6246 10.8056 5.35945 10.8056 4.93476V1.43513H14.275C15.1946 1.43513 15.9431 2.18327 15.9431 3.10314V6.75043C15.9431 6.80813 15.966 6.86347 16.0068 6.90427C16.0476 6.94508 16.1029 6.968 16.1606 6.968C16.2183 6.968 16.2737 6.94508 16.3145 6.90427C16.3553 6.86347 16.3782 6.80813 16.3782 6.75043V3.10314C16.3782 1.94337 15.4345 1 14.275 1H3.10053C1.94221 1 1 1.94337 1 3.10314V14.6313C1 15.7893 1.94221 16.7315 3.10024 16.7315L3.10053 16.7312ZM10.3702 4.93476C10.3702 5.02469 10.2733 5.07894 10.1973 5.03427L8.96555 4.31397C8.88121 4.26459 8.78523 4.23856 8.6875 4.23856C8.58976 4.23856 8.49379 4.26459 8.40945 4.31397L7.17773 5.03427C7.16023 5.04447 7.14035 5.04988 7.12009 5.04995C7.09983 5.05001 7.07991 5.04473 7.06234 5.03464C7.04477 5.02455 7.03018 5.01 7.02003 4.99246C7.00989 4.97493 7.00455 4.95502 7.00455 4.93476V1.43716H10.3704L10.3702 4.93476Z" fill="#7A3ABF" stroke="#7A3ABF" stroke-width="0.2"/>
<path d="M7.67207 12.4927C7.67207 12.435 7.64915 12.3797 7.60835 12.3389C7.56755 12.2981 7.51221 12.2751 7.45451 12.2751H3.14872C3.09102 12.2751 3.03568 12.2981 2.99488 12.3389C2.95407 12.3797 2.93115 12.435 2.93115 12.4927C2.93115 12.5504 2.95407 12.6057 2.99488 12.6465C3.03568 12.6873 3.09102 12.7103 3.14872 12.7103H7.45451C7.51221 12.7103 7.56755 12.6873 7.60835 12.6465C7.64915 12.6057 7.67207 12.5504 7.67207 12.4927ZM3.14901 14.0824C3.09131 14.0824 3.03597 14.1053 2.99517 14.1461C2.95436 14.1869 2.93144 14.2422 2.93144 14.3C2.93144 14.3577 2.95436 14.413 2.99517 14.4538C3.03597 14.4946 3.09131 14.5175 3.14901 14.5175H5.48945C5.54715 14.5175 5.60249 14.4946 5.64329 14.4538C5.68409 14.413 5.70701 14.3577 5.70701 14.3C5.70701 14.2422 5.68409 14.1869 5.64329 14.1461C5.60249 14.1053 5.54715 14.0824 5.48945 14.0824H3.14901ZM15.1558 7.04541C12.4852 7.04541 10.3122 9.21817 10.3122 11.889C10.3122 14.5599 12.4849 16.7326 15.1561 16.7326C17.8272 16.7326 19.9997 14.5599 19.9997 11.889C19.9997 9.21817 17.8266 7.04541 15.1558 7.04541ZM15.1558 16.2975C12.7248 16.2975 10.7473 14.32 10.7473 11.889C10.7473 9.45808 12.7251 7.48054 15.1561 7.48054C17.587 7.48054 19.5646 9.45808 19.5646 11.889C19.5646 14.32 17.5867 16.2975 15.1558 16.2975Z" fill="#7A3ABF" stroke="#7A3ABF" stroke-width="0.2"/>
<path d="M15.1564 8.18063C13.1165 8.18063 11.4482 9.84081 11.4482 11.8891C11.4482 13.9244 13.1032 15.5976 15.1567 15.5976C17.1961 15.5976 18.8649 13.9377 18.8649 11.8891C18.8649 9.85358 17.2097 8.18063 15.1564 8.18063ZM18.1885 12.1067H18.4191C18.3722 12.8224 18.0902 13.5026 17.617 14.0416L17.4545 13.8791C17.4346 13.8578 17.4106 13.8406 17.3839 13.8287C17.3572 13.8168 17.3284 13.8104 17.2992 13.8099C17.27 13.8094 17.241 13.8148 17.2139 13.8257C17.1868 13.8367 17.1622 13.853 17.1415 13.8736C17.1209 13.8943 17.1046 13.9189 17.0936 13.946C17.0827 13.9731 17.0773 14.0021 17.0778 14.0313C17.0783 14.0605 17.0847 14.0893 17.0966 14.116C17.1085 14.1427 17.1257 14.1667 17.147 14.1866L17.3095 14.3491C16.7705 14.8224 16.0903 15.1044 15.3746 15.1515V14.9208C15.3746 14.8631 15.3517 14.8078 15.3109 14.767C15.2701 14.7262 15.2147 14.7033 15.157 14.7033C15.0993 14.7033 15.044 14.7262 15.0032 14.767C14.9624 14.8078 14.9395 14.8631 14.9395 14.9208V15.1515C14.2237 15.1045 13.5435 14.8224 13.0046 14.3491L13.167 14.1866C13.1884 14.1667 13.2055 14.1427 13.2174 14.116C13.2293 14.0893 13.2357 14.0605 13.2362 14.0313C13.2367 14.0021 13.2314 13.9731 13.2204 13.946C13.2095 13.9189 13.1932 13.8943 13.1725 13.8736C13.1519 13.853 13.1273 13.8367 13.1002 13.8257C13.0731 13.8148 13.0441 13.8094 13.0149 13.8099C12.9856 13.8104 12.9568 13.8168 12.9302 13.8287C12.9035 13.8406 12.8794 13.8578 12.8595 13.8791L12.6971 14.0416C12.2237 13.5027 11.9416 12.8225 11.8947 12.1067H12.1253C12.183 12.1067 12.2384 12.0838 12.2792 12.043C12.32 12.0022 12.3429 11.9468 12.3429 11.8891C12.3429 11.8314 12.32 11.7761 12.2792 11.7353C12.2384 11.6945 12.183 11.6716 12.1253 11.6716H11.8947C11.9415 10.9559 12.2233 10.2757 12.6965 9.73667L12.8589 9.89912C12.8789 9.9205 12.9029 9.93764 12.9296 9.94953C12.9563 9.96142 12.9851 9.96782 13.0143 9.96833C13.0435 9.96885 13.0725 9.96347 13.0996 9.95253C13.1267 9.94159 13.1513 9.9253 13.172 9.90464C13.1926 9.88398 13.2089 9.85937 13.2199 9.83228C13.2308 9.80519 13.2362 9.77617 13.2357 9.74696C13.2351 9.71775 13.2287 9.68894 13.2169 9.66225C13.205 9.63556 13.1878 9.61154 13.1664 9.59163L13.004 9.42918C13.543 8.95589 14.2231 8.67382 14.9389 8.62679V8.85741C14.9389 8.91511 14.9618 8.97045 15.0026 9.01125C15.0434 9.05205 15.0987 9.07498 15.1564 9.07498C15.2141 9.07498 15.2695 9.05205 15.3103 9.01125C15.3511 8.97045 15.374 8.91511 15.374 8.85741V8.62679C16.0898 8.67378 16.77 8.95585 17.3089 9.42918L17.1465 9.59163C17.1251 9.61154 17.1079 9.63556 17.096 9.66225C17.0842 9.68894 17.0778 9.71775 17.0772 9.74696C17.0767 9.77617 17.0821 9.80519 17.093 9.83228C17.104 9.85937 17.1203 9.88398 17.1409 9.90464C17.1616 9.9253 17.1862 9.94159 17.2133 9.95253C17.2404 9.96347 17.2694 9.96885 17.2986 9.96833C17.3278 9.96782 17.3566 9.96142 17.3833 9.94953C17.41 9.93764 17.434 9.9205 17.454 9.89912L17.6164 9.73667C18.0898 10.2756 18.3719 10.9558 18.4188 11.6716H18.1882C18.1305 11.6716 18.0751 11.6945 18.0343 11.7353C17.9935 11.7761 17.9706 11.8314 17.9706 11.8891C17.9706 11.9468 17.9935 12.0022 18.0343 12.043C18.0751 12.0838 18.1308 12.1067 18.1885 12.1067Z" fill="#7A3ABF" stroke="#7A3ABF" stroke-width="0.2"/>
<path d="M15.3731 11.7992V9.73725C15.3731 9.67955 15.3502 9.62421 15.3094 9.58341C15.2686 9.54261 15.2133 9.51968 15.1556 9.51968C15.0979 9.51968 15.0425 9.54261 15.0017 9.58341C14.9609 9.62421 14.938 9.67955 14.938 9.73725V11.8891C14.938 11.9471 14.9612 12.0023 15.0018 12.0429L16.103 13.1441C16.1232 13.1643 16.1471 13.1804 16.1735 13.1914C16.1999 13.2024 16.2283 13.2081 16.2569 13.2081C16.2855 13.2081 16.3138 13.2024 16.3402 13.1914C16.3666 13.1804 16.3906 13.1643 16.4108 13.1441C16.4515 13.1033 16.4744 13.048 16.4744 12.9903C16.4744 12.9327 16.4515 12.8774 16.4108 12.8366L15.3731 11.7992Z" fill="#7A3ABF" stroke="#7A3ABF" stroke-width="0.2"/>
</svg>
