<svg width="16" height="16" viewBox="0 0 16 16" fill="none" xmlns="http://www.w3.org/2000/svg">
<path d="M13.6425 2.08973L10.5977 2.08899C10.5542 2.089 10.5118 2.1019 10.4757 2.12605C10.4396 2.1502 10.4114 2.18452 10.3948 2.22467C10.3782 2.26476 10.3738 2.30891 10.3822 2.35151C10.3906 2.39411 10.4115 2.43325 10.4422 2.46397L11.5886 3.6103L3.63702 11.6041L2.49168 10.4588C2.46095 10.4281 2.42182 10.4072 2.37924 10.3987C2.33665 10.3903 2.29251 10.3946 2.25238 10.4111C2.21228 10.4278 2.17802 10.456 2.15392 10.4921C2.12982 10.5282 2.11696 10.5706 2.11697 10.614L2.1167 13.6583C2.11668 13.6871 2.12234 13.7157 2.13336 13.7423C2.14439 13.7689 2.16056 13.7932 2.18095 13.8135C2.20133 13.8339 2.22554 13.8501 2.25219 13.8611C2.27883 13.8721 2.30739 13.8778 2.33622 13.8778L5.381 13.8785C5.42444 13.8785 5.46689 13.8657 5.503 13.8415C5.53911 13.8174 5.56723 13.7831 5.58382 13.7429C5.60051 13.7028 5.60491 13.6587 5.59648 13.616C5.58805 13.5734 5.56716 13.5343 5.53646 13.5036L4.39112 12.3582L10.4492 6.25591L12.3416 4.36341L13.487 5.50875C13.5177 5.53944 13.5568 5.56034 13.5994 5.56881C13.642 5.57729 13.6862 5.57297 13.7263 5.55639C13.7664 5.53975 13.8006 5.5116 13.8247 5.4755C13.8488 5.4394 13.8617 5.39697 13.8617 5.35356L13.862 2.30929C13.862 2.28046 13.8563 2.2519 13.8453 2.22525C13.8343 2.19861 13.8181 2.1744 13.7977 2.15401C13.7774 2.13361 13.7532 2.11744 13.7265 2.10641C13.6999 2.09538 13.6713 2.08972 13.6425 2.08973Z" fill="#7A3ABF"/>
<path d="M14.7459 0H1.25419C0.561475 0 0 0.561441 0 1.25419V14.7458C0 15.4386 0.561475 16 1.25419 16H14.7459C15.4386 16 16.0001 15.4386 16.0001 14.7458V1.25419C16 0.561441 15.4386 0 14.7459 0ZM14.9334 14.7458C14.9333 14.7956 14.9135 14.8432 14.8784 14.8784C14.8432 14.9135 14.7956 14.9333 14.7459 14.9334H1.25419C1.20447 14.9333 1.15681 14.9135 1.12166 14.8784C1.08651 14.8432 1.06673 14.7956 1.06668 14.7458V1.25419C1.06672 1.20447 1.08649 1.1568 1.12165 1.12164C1.1568 1.08648 1.20447 1.0667 1.25419 1.06665H14.7459C14.7956 1.06671 14.8433 1.08649 14.8784 1.12165C14.9136 1.15681 14.9333 1.20447 14.9334 1.25419V14.7458H14.9334Z" fill="#7A3ABF"/>
</svg>
