<svg width="18" height="18" viewBox="0 0 18 18" fill="none" xmlns="http://www.w3.org/2000/svg">
<path d="M16.2456 5.44219H13.1825C13.016 5.44219 12.8563 5.37604 12.7386 5.25829C12.6208 5.14055 12.5547 4.98085 12.5547 4.81433C12.5547 4.64781 12.6208 4.48812 12.7386 4.37037C12.8563 4.25263 13.016 4.18648 13.1825 4.18648H15.6571L15.8354 1.42392C15.8489 1.25833 15.9264 1.10451 16.0514 0.995106C16.1765 0.885701 16.3392 0.829319 16.5051 0.837925C16.5877 0.843133 16.6684 0.864624 16.7426 0.901159C16.8168 0.937695 16.8831 0.988553 16.9375 1.0508C16.992 1.11305 17.0336 1.18547 17.06 1.26387C17.0863 1.34228 17.0969 1.42512 17.0911 1.50764L16.8752 4.85619C16.8647 5.01571 16.7937 5.16521 16.6767 5.27413C16.5597 5.38305 16.4055 5.44317 16.2456 5.44219Z" fill="#7A3ABF"/>
<path d="M8.99737 17.9985C7.41776 17.9981 5.86605 17.582 4.49821 16.792C3.13036 16.0019 1.99457 14.8658 1.20497 13.4976C0.415374 12.1295 -0.000204437 10.5777 7.54466e-08 8.99807C0.000204588 7.41846 0.416185 5.86672 1.20614 4.49881C1.99609 3.1309 3.13217 1.99502 4.50022 1.20532C5.86827 0.415618 7.42009 -8.17696e-05 8.9997 1.20645e-08C10.5793 8.17937e-05 12.1311 0.415942 13.4991 1.20579C14.867 1.99563 16.003 3.13163 16.7928 4.49962C16.8761 4.64393 16.8986 4.81541 16.8554 4.97633C16.8122 5.13725 16.7069 5.27443 16.5626 5.35769C16.4183 5.44094 16.2468 5.46346 16.0859 5.42029C15.925 5.37712 15.7878 5.27179 15.7045 5.12747C14.7654 3.49959 13.2666 2.26863 11.4872 1.66395C9.70781 1.05926 7.76927 1.1221 6.03278 1.84075C4.29629 2.55941 2.88029 3.88485 2.04861 5.57013C1.21693 7.25541 1.02631 9.18558 1.51225 11.001C1.99819 12.8164 3.12756 14.3932 4.68992 15.4377C6.25228 16.4821 8.14107 16.923 10.0044 16.6781C11.8677 16.4331 13.5784 15.5192 14.8177 14.1064C16.0571 12.6937 16.7406 10.8786 16.7409 8.99924C16.7409 8.83272 16.807 8.67302 16.9248 8.55528C17.0425 8.43753 17.2022 8.37138 17.3688 8.37138C17.5353 8.37138 17.695 8.43753 17.8127 8.55528C17.9305 8.67302 17.9966 8.83272 17.9966 8.99924C17.9939 11.3852 17.045 13.6726 15.3579 15.3597C13.6707 17.0468 11.3833 17.9958 8.99737 17.9985Z" fill="#7A3ABF"/>
<path d="M12.3457 12.1385C12.2101 12.1384 12.0782 12.0943 11.9698 12.0129L8.62126 9.50147C8.54328 9.44298 8.47999 9.36715 8.4364 9.27997C8.39281 9.19279 8.37012 9.09665 8.37012 8.99918V4.81349C8.37012 4.64697 8.43627 4.48728 8.55401 4.36953C8.67176 4.25179 8.83145 4.18564 8.99797 4.18564C9.16449 4.18564 9.32418 4.25179 9.44193 4.36953C9.55968 4.48728 9.62582 4.64697 9.62582 4.81349V8.68526L12.7232 11.0083C12.8287 11.0874 12.9066 11.1977 12.9459 11.3236C12.9852 11.4495 12.9838 11.5845 12.942 11.7095C12.9002 11.8346 12.8202 11.9433 12.7131 12.0203C12.6061 12.0973 12.4775 12.1386 12.3457 12.1385Z" fill="#7A3ABF"/>
</svg>
