<svg width="33" height="20" viewBox="0 0 33 20" fill="none" xmlns="http://www.w3.org/2000/svg">
<path fill-rule="evenodd" clip-rule="evenodd" d="M23.5254 0.194391C26.3865 0.858258 27.4809 2.53127 28.8531 4.83398H23.5254V0.194391ZM6.80483 5.02734C7.36506 5.02734 7.77163 5.29772 7.77163 5.92969C7.77163 6.46271 7.34037 6.895 6.8076 6.89648H0.966797C0.432803 6.89648 0 7.32955 0 7.86328C0 8.39727 0.432803 8.83008 0.966797 8.83008H9.66797C10.207 8.83008 10.6386 9.26256 10.6386 9.79688C10.6386 10.3309 10.2058 10.7637 9.67177 10.7637H0.966797C0.432803 10.7637 0 11.1965 0 11.7305C0 12.2645 0.432803 12.6973 0.966797 12.6973H3.09375V15.5977C3.09375 16.1317 3.52655 16.5645 4.06055 16.5645H6.00394C6.35037 18.271 7.85825 19.5293 9.63574 19.5293C11.4132 19.5293 12.9211 18.271 13.2675 16.5645H23.084C23.4305 18.271 24.9383 19.5293 26.7158 19.5293C28.4933 19.5293 30.0012 18.271 30.3476 16.5645H32.0332C32.5672 16.5645 33 16.1317 33 15.5977V9.79688C33 6.96016 30.008 6.77183 30.0052 6.76758H22.5586C22.0246 6.76758 21.5918 6.33478 21.5918 5.80078V0H4.06055C3.52655 0 3.09375 0.432803 3.09375 0.966797V3.09375H1.93359C1.3996 3.09375 0.966797 3.52655 0.966797 4.06055C0.966797 4.59454 1.3996 5.02734 1.93359 5.02734H6.80483ZM27.9691 14.57C28.6613 15.262 28.6613 16.3847 27.9691 17.0768C26.8558 18.1902 24.9434 17.3981 24.9434 15.8232C24.9434 14.2487 26.8558 13.4566 27.9691 14.57ZM10.889 14.57C11.5812 15.262 11.5812 16.3847 10.889 17.0768C9.77573 18.1902 7.86328 17.3981 7.86328 15.8232C7.86328 14.2487 9.77573 13.4566 10.889 14.57Z" fill="#C71919"/>
</svg>
